#N canvas 963 80 474 997 10;
#X obj 18 38 inlet;
#X obj 227 38 inlet;
#X obj 114 38 inlet;
#X obj 18 210 outlet;
#X text 18 17 Signal;
#X obj 18 102 change;
#X obj 72 102 change;
#X obj 18 124 sel 1;
#X obj 72 124 sel 0;
#X msg 18 146 1;
#X msg 72 146 0;
#X obj 18 176 tgl 25 0 empty empty empty 17 7 0 10 -262144 -1 -1 1
1;
#X obj 18 72 > \$1;
#X obj 72 72 > \$2;
#X text 114 17 Rising threshold;
#X text 227 17 Falling threshold;
#X connect 0 0 12 0;
#X connect 0 0 13 0;
#X connect 1 0 13 1;
#X connect 2 0 12 1;
#X connect 5 0 7 0;
#X connect 6 0 8 0;
#X connect 7 0 9 0;
#X connect 8 0 10 0;
#X connect 9 0 11 0;
#X connect 10 0 11 0;
#X connect 11 0 3 0;
#X connect 12 0 5 0;
#X connect 13 0 6 0;
