#N canvas 913 67 451 699 10;
#X obj 289 11 inlet;
#X obj 289 62 tgl 15 0 empty empty empty 17 7 0 10 -262144 -1 -1 1
1;
#X text 304 61 Speech detected;
#X obj 289 35 change;
#X obj 70 263 outlet;
#X obj 70 180 change;
#X obj 70 207 sel 1;
#X obj 25 124 mean_var;
#X obj 95 11 inlet;
#X obj 25 11 loadbang;
#X obj 25 62 f;
#X obj 151 11 inlet;
#X obj 151 62 tgl 15 0 empty empty empty 17 7 0 10 -262144 -1 -1 1
1;
#X obj 151 35 change;
#X text 167 61 Pitch detected;
#X obj 190 124 &;
#X obj 190 96 t b f;
#X obj 70 236 spigot;
#X obj 70 154 < 1;
#X obj 25 35 metro 10;
#X obj 25 96 window 20;
#X connect 0 0 3 0;
#X connect 1 0 16 0;
#X connect 3 0 1 0;
#X connect 5 0 6 0;
#X connect 6 0 17 0;
#X connect 7 1 18 0;
#X connect 8 0 10 1;
#X connect 9 0 19 0;
#X connect 10 0 20 0;
#X connect 11 0 13 0;
#X connect 12 0 15 0;
#X connect 13 0 12 0;
#X connect 15 0 17 1;
#X connect 16 0 15 0;
#X connect 16 1 15 1;
#X connect 17 0 4 0;
#X connect 18 0 5 0;
#X connect 19 0 10 0;
#X connect 20 0 7 0;
