#N canvas 913 67 451 699 10;
#X obj 235 19 inlet;
#X obj 235 71 tgl 15 0 empty empty empty 17 7 0 10 -262144 -1 -1 1
1;
#X text 251 70 Speech detected;
#X obj 235 45 change;
#X obj 235 99 sel 0 1;
#X obj 235 461 bng 15 250 50 0 empty empty empty 17 7 0 10 -262144
-1 -1;
#X obj 235 433 delay 400;
#X msg 254 379 stop;
#X obj 304 194 timer;
#X floatatom 304 218 5 0 0 0 - - -, f 5;
#X text 337 217 Millis of continuous speech;
#X obj 304 269 tgl 15 0 empty empty empty 17 7 0 10 -262144 -1 -1 0
1;
#X obj 235 407 spigot;
#X obj 10 119 linear_regression;
#X floatatom 10 148 5 0 0 0 - - -, f 5;
#X floatatom 109 148 5 0 0 0 - - -, f 5;
#X text 44 147 Slope;
#X text 143 147 Intercept;
#X obj 10 220 |;
#X obj 10 170 t f f;
#X obj 304 371 &;
#X text 252 460 A long pause after continuous speech and rising or
failing pitch;
#X obj 235 128 t b b;
#X obj 254 161 t b b;
#X obj 304 241 > 1000;
#X obj 307 555 tgl 15 0 empty empty empty 17 7 0 10 -262144 -1 -1 1
1;
#X obj 262 576 spigot 1;
#X msg 307 533 1;
#X obj 235 493 t 0 b;
#X obj 262 600 outlet;
#X obj 307 511 delay 1400;
#X obj 77 11 inlet;
#X obj 10 61 f;
#X obj 10 11 loadbang;
#X obj 10 194 > 3;
#X obj 37 194 < -3;
#X obj 89 85 bng 15 250 50 0 empty empty empty 17 7 0 10 -262144 -1
-1;
#X obj 10 36 metro 10;
#X obj 10 91 window 10;
#X obj 10 243 change;
#X obj 10 263 sel 0 1;
#X msg 10 304 0;
#X obj 10 331 tgl 15 0 empty empty empty 17 7 0 10 -262144 -1 -1 1
1;
#X text 28 331 Rising or failing pitch recently;
#X msg 41 304 1;
#X obj 10 283 delay \$1;
#X text 63 283 Hold it open for \$1 millis;
#X connect 0 0 3 0;
#X connect 1 0 4 0;
#X connect 3 0 1 0;
#X connect 4 0 22 0;
#X connect 4 1 23 0;
#X connect 5 0 28 0;
#X connect 6 0 5 0;
#X connect 7 0 6 0;
#X connect 8 0 9 0;
#X connect 9 0 24 0;
#X connect 11 0 20 0;
#X connect 12 0 6 0;
#X connect 13 0 14 0;
#X connect 13 1 15 0;
#X connect 14 0 19 0;
#X connect 18 0 39 0;
#X connect 19 0 34 0;
#X connect 19 1 35 0;
#X connect 20 0 12 1;
#X connect 22 0 12 0;
#X connect 22 1 8 1;
#X connect 23 0 7 0;
#X connect 23 1 8 0;
#X connect 24 0 11 0;
#X connect 25 0 26 1;
#X connect 26 0 29 0;
#X connect 26 0 30 0;
#X connect 27 0 25 0;
#X connect 28 0 25 0;
#X connect 28 1 26 0;
#X connect 30 0 27 0;
#X connect 31 0 32 1;
#X connect 32 0 38 0;
#X connect 33 0 37 0;
#X connect 34 0 18 0;
#X connect 35 0 18 1;
#X connect 36 0 37 0;
#X connect 37 0 32 0;
#X connect 38 0 13 0;
#X connect 39 0 40 0;
#X connect 40 0 45 0;
#X connect 40 1 44 0;
#X connect 41 0 42 0;
#X connect 42 0 20 1;
#X connect 44 0 42 0;
#X connect 45 0 41 0;
