#N canvas 913 67 451 699 10;
#X obj 17 15 inlet;
#X obj 17 53 t f b;
#X obj 146 127 + 1;
#X obj 146 100 i 0;
#X obj 146 154 % 100;
#X obj 215 55 table \$0_scope_data;
#X obj 17 181 tabwrite \$0_scope_data;
#X connect 0 0 1 0;
#X connect 1 0 6 0;
#X connect 1 1 3 0;
#X connect 2 0 4 0;
#X connect 3 0 2 0;
#X connect 4 0 3 1;
#X connect 4 0 6 1;
#X coords 0 -1 1 1 200 100 1 215 55;
