#N canvas 1326 54 415 398 10;
#X obj 71 258 bng 25 250 50 0 empty empty empty 17 7 0 10 -262144 -1
-1;
#X obj 71 178 smooth_pitch 8192;
#X obj 71 230 WardTsukahara2000 100;
#X text 34 99 Argument - # of samples for percentile calculation;
#X text 34 11 Ward and Tsukahara 2000 model \, based on snippet from
Poppe et al. 2010 Provide backchannel feedback upon detection of: A
region of pitch less than the 26th-percentile pitch level and continuing
for at least 110ms \, coming after at least 700ms of speech \, provided
that no backchannel has been output within the preceding 800ms \, after
700ms wait.;
#X obj 194 207 tgl 15 0 empty empty empty 17 7 0 10 -262144 -1 -1 0
1;
#X text 209 206 Speach detected;
#X msg 71 293 send 1;
#X floatatom 182 349 5 0 0 0 - - -, f 5;
#X obj 71 320 netreceive -b 50003;
#X text 216 348 Active connections;
#X text 150 297 Port 50003 Why? Just because...;
#X text 100 261 Backchannel!;
#X obj 71 146 adc~ 1;
#X obj 16 220 vu 15 120 empty empty -1 -8 0 10 -66577 -1 1 0;
#X obj 15 178 env~;
#X obj 15 198 - 90;
#X connect 0 0 7 0;
#X connect 1 0 2 0;
#X connect 2 0 0 0;
#X connect 5 0 2 1;
#X connect 7 0 9 0;
#X connect 9 0 5 0;
#X connect 9 1 8 0;
#X connect 13 0 1 0;
#X connect 13 0 15 0;
#X connect 15 0 16 0;
#X connect 16 0 14 0;
