#N canvas 1326 54 550 444 10;
#X obj 21 362 bng 25 250 50 0 empty empty empty 17 7 0 10 -262144 -1
-1;
#X text 45 361 Backchannel;
#X obj 21 206 smooth_pitch 8192;
#X obj 21 329 WardTsukahara2000 100;
#X text 34 99 Argument - # of samples for percentile calculation;
#X text 34 11 Ward and Tsukahara 2000 model \, based on snippet from
Poppe et al. 2010 Provide backchannel feedback upon detection of: A
region of pitch less than the 26th-percentile pitch level and continuing
for at least 110ms \, coming after at least 700ms of speech \, provided
that no backchannel has been output within the preceding 800ms \, after
700ms wait.;
#X obj 144 306 tgl 15 0 empty empty empty 17 7 0 10 -262144 -1 -1 1
1;
#X text 159 305 Speach detected;
#X floatatom 237 206 5 0 0 0 - - -, f 5;
#X floatatom 237 231 5 0 0 0 - - -, f 5;
#X text 271 205 Rising volume threshold;
#X text 271 230 Falling volume threshold;
#X obj 21 162 adc~ 1;
#X floatatom 144 231 5 0 0 0 - - -, f 5;
#X obj 144 280 change;
#X obj 144 206 env~ 8192;
#N canvas 963 94 954 986 input 0;
#X obj 357 264 readsf~;
#X obj 128 11 loadbang;
#X msg 128 60 \; pd dsp 1;
#X obj 187 265 adc~;
#X obj 187 296 *~;
#X obj 357 291 *~ 1;
#X obj 205 87 hsl 80 15 0 1 0 0 empty empty empty -2 -8 0 10 -262144
-1 -1 7900 1;
#X obj 187 330 outlet~;
#X msg 202 60 1;
#X obj 205 118 hsl 80 15 0 6 0 0 empty empty empty -2 -8 0 10 -262144
-1 -1 0 1;
#X text 288 86 Recording;
#X text 288 116 Microphone;
#X floatatom 357 87 5 0 0 0 - - -, f 5;
#X obj 357 151 makefilename media/out%d.wav;
#X msg 357 179 open \$1;
#X msg 357 237 1;
#X obj 357 208 t b a;
#X connect 0 0 5 0;
#X connect 0 1 12 0;
#X connect 1 0 2 0;
#X connect 1 0 8 0;
#X connect 1 0 12 0;
#X connect 3 0 4 0;
#X connect 3 1 4 0;
#X connect 4 0 7 0;
#X connect 5 0 7 0;
#X connect 6 0 5 1;
#X connect 8 0 6 0;
#X connect 9 0 4 1;
#X connect 12 0 13 0;
#X connect 13 0 14 0;
#X connect 14 0 16 0;
#X connect 15 0 0 0;
#X connect 16 0 15 0;
#X connect 16 1 0 0;
#X coords 0 -1 1 1 300 56 1 198 82;
#X restore 144 133 pd input;
#X obj 144 254 hysteresis 60 55;
#N canvas 0 50 450 300 sendudp 0;
#X obj 12 97 netsend -u;
#X obj 134 18 loadbang;
#X msg 12 57 send backchannel;
#X floatatom 12 131 5 0 0 0 - - -, f 5;
#X obj 12 162 sel 0;
#X obj 12 18 inlet;
#X msg 134 57 connect localhost 12312;
#X connect 0 0 3 0;
#X connect 1 0 6 0;
#X connect 2 0 0 0;
#X connect 3 0 4 0;
#X connect 4 0 6 0;
#X connect 5 0 2 0;
#X connect 6 0 0 0;
#X restore 21 404 pd sendudp;
#X connect 0 0 18 0;
#X connect 2 0 3 0;
#X connect 3 0 0 0;
#X connect 6 0 3 1;
#X connect 8 0 17 1;
#X connect 9 0 17 2;
#X connect 12 0 2 0;
#X connect 12 0 15 0;
#X connect 13 0 17 0;
#X connect 14 0 6 0;
#X connect 15 0 13 0;
#X connect 16 0 2 0;
#X connect 16 0 15 0;
#X connect 17 0 14 0;
