#N canvas 889 67 475 699 10;
#X obj 5 6 inlet~;
#X obj 5 295 outlet;
#X obj 20 98 mtof;
#X obj 53 160 > 60;
#X obj 53 190 &;
#X obj 20 125 t f f f;
#X obj 20 218 spigot;
#X obj 5 245 f;
#X text 134 160 Normal voice pitch range;
#X obj 5 31 sigmund~ -npts \$1 pitch;
#X obj 5 56 t b f;
#X obj 97 160 < 300;
#X msg 76 245 0;
#X msg 103 245 1;
#X obj 76 295 outlet;
#X obj 76 272 tgl 15 0 empty empty empty 17 7 0 10 -262144 -1 -1 0
1;
#X text 96 271 Pitch detection succeeded;
#X obj 76 218 sel 0;
#X floatatom 5 272 5 0 0 0 - - -, f 5;
#X connect 0 0 9 0;
#X connect 2 0 5 0;
#X connect 3 0 4 0;
#X connect 4 0 6 1;
#X connect 4 0 17 0;
#X connect 5 0 6 0;
#X connect 5 1 3 0;
#X connect 5 2 11 0;
#X connect 6 0 7 1;
#X connect 7 0 18 0;
#X connect 9 0 10 0;
#X connect 10 0 7 0;
#X connect 10 1 2 0;
#X connect 11 0 4 1;
#X connect 12 0 15 0;
#X connect 13 0 15 0;
#X connect 15 0 14 0;
#X connect 17 0 12 0;
#X connect 17 1 13 0;
#X connect 18 0 1 0;
