#N canvas 643 80 634 997 10;
#X floatatom 12 60 5 0 0 0 - - -, f 5;
#X obj 12 103 change;
#X obj 58 11 inlet;
#X obj 12 127 outlet;
#X obj 12 11 inlet~;
#X obj 105 11 inlet;
#X obj 12 81 hysteresis \$2 \$3;
#X obj 12 37 env~ \$1;
#X connect 0 0 6 0;
#X connect 1 0 3 0;
#X connect 2 0 6 1;
#X connect 4 0 7 0;
#X connect 5 0 6 2;
#X connect 6 0 1 0;
#X connect 7 0 0 0;
